<?xml version="1.0" encoding="UTF-8"?>
<svg width="190px" height="55px" viewBox="0 0 190 55" version="1.1" xmlns="http://www.w3.org/2000/svg" xmlns:xlink="http://www.w3.org/1999/xlink">
    <!-- Generator: Sketch 52.6 (67491) - http://www.bohemiancoding.com/sketch -->
    <title>download-on-the-app-store-apple</title>
    <desc>Created with Sketch.</desc>
    <defs>
        <linearGradient x1="49.9984472%" y1="100.265508%" x2="49.9984472%" y2="-260.382794%" id="linearGradient-1">
            <stop stop-color="#1A1A1A" stop-opacity="0.1" offset="0%"></stop>
            <stop stop-color="#212121" stop-opacity="0.151" offset="12.3%"></stop>
            <stop stop-color="#353535" stop-opacity="0.227" offset="30.8%"></stop>
            <stop stop-color="#575757" stop-opacity="0.318" offset="53.2%"></stop>
            <stop stop-color="#858585" stop-opacity="0.421" offset="78.3%"></stop>
            <stop stop-color="#B3B3B3" stop-opacity="0.51" offset="100%"></stop>
        </linearGradient>
    </defs>
    <g id="Page-1" stroke="none" stroke-width="1" fill="none" fill-rule="evenodd">
        <g id="Artboard" transform="translate(-101.000000, -117.000000)">
            <g id="download-on-the-app-store-apple" transform="translate(101.000000, 117.000000)">
                <path d="M188.390622,48.205551 C188.390623,49.5949017 187.822683,50.9272685 186.8119,51.9091749 C185.801116,52.8910814 184.430405,53.4419816 183.001688,53.4405306 L6.64691457,53.4405306 C3.67045963,53.443552 1.25483144,51.0999915 1.25095241,48.205551 L1.25095241,6.45829728 C1.25482939,3.56275189 3.66932184,1.2172351 6.64691457,1.21648351 L183.000283,1.21648351 C184.42976,1.21648346 185.80067,1.76878802 186.811332,2.7518581 C187.821993,3.73492818 188.38959,5.06820754 188.389217,6.45829728 L188.390622,48.205551 Z" id="Path" fill="#FFFFFF"></path>
                <path d="M183.001688,54.658381 L6.64691457,54.658381 C2.98063195,54.6576337 0.00697593306,51.770806 0,48.205551 L0,6.45966412 C0.00542367403,2.8926764 2.978854,0.00301067211 6.64691457,0 L183.000283,0 C186.667703,0.00451272305 189.640229,2.89330017 189.647197,6.45966412 L189.647197,48.205551 C189.650008,51.7647904 186.663184,54.658381 183.001688,54.658381 Z" id="Path" fill="#A6A6A6"></path>
                <path d="M188.390622,48.205551 C188.390623,49.5949017 187.822683,50.9272685 186.8119,51.9091749 C185.801116,52.8910814 184.430405,53.4419816 183.001688,53.4405306 L6.64691457,53.4405306 C3.67045963,53.443552 1.25483144,51.0999915 1.25095241,48.205551 L1.25095241,6.45829728 C1.25482939,3.56275189 3.66932184,1.2172351 6.64691457,1.21648351 L183.000283,1.21648351 C184.42976,1.21648346 185.80067,1.76878802 186.811332,2.7518581 C187.821993,3.73492818 188.38959,5.06820754 188.389217,6.45829728 L188.390622,48.205551 Z" id="Path" fill="#000000"></path>
                <path d="M42.3468476,27.0414716 C42.3060862,22.6361611 46.0561323,20.4929632 46.2276112,20.3931842 C44.1038032,17.3820458 40.8119711,16.9706284 39.6551915,16.9378243 C36.8904461,16.6548894 34.208629,18.5465896 32.8002534,18.5465896 C31.3637665,18.5465896 29.1949804,16.965161 26.8575267,17.0116334 C23.8496186,17.056739 21.0356785,18.7502481 19.4923686,21.3800394 C16.3073594,26.7421347 18.6827635,34.6219408 21.734244,38.9561758 C23.2606871,41.0802381 25.0443484,43.4489638 27.3789911,43.3655869 C29.6630334,43.2753757 30.5162111,41.9509122 33.2725231,41.9509122 C36.0035349,41.9509122 36.8047067,43.3655869 39.185733,43.3122803 C41.6370375,43.2753757 43.1803473,41.180017 44.6533789,39.038186 C46.4173624,36.6065858 47.1257669,34.2091565 47.1538782,34.0861413 C47.0976556,34.0670056 42.3946368,32.32019 42.3468476,27.0414716 Z M37.8490411,14.0866057 C39.0775045,12.5926546 39.9180321,10.5601703 39.6847084,8.4976157 C37.9066693,8.57415849 35.6830662,9.69359668 34.402597,11.1547437 C33.269712,12.4423027 32.2577055,14.5526965 32.5191405,16.5373415 C34.5164477,16.6822261 36.5671663,15.5573206 37.8490411,14.0866057 Z" id="Shape" fill="#FFFFFF" fill-rule="nonzero"></path>
                <path d="M183.001688,7.18380777e-16 L88.5407252,0 L125.5394,54.658381 L183.001688,54.658381 C186.668653,54.6553737 189.641631,51.7673705 189.648603,48.2014505 L189.648603,6.45966412 C189.642407,2.89298836 186.669428,0.00376200057 183.001688,7.18380777e-16 Z" id="Path" fill="url(#linearGradient-1)"></path>
                <g id="Group" transform="translate(59.033709, 23.236202)" fill="#FFFFFF" fill-rule="nonzero">
                    <path d="M16.39591,19.8245807 L13.203873,19.8245807 L11.4553508,14.4816211 L5.37768982,14.4816211 L3.71209587,19.8245807 L0.604392739,19.8245807 L6.62723667,1.63473514 L10.3463604,1.63473514 L16.39591,19.8245807 Z M10.9282641,12.240011 L9.34700399,7.49025801 C9.17974182,7.00503144 8.86489537,5.86235705 8.40387021,4.06360166 L8.34764763,4.06360166 C8.16211311,4.83723049 7.865539,5.97990489 7.45933086,7.49025801 L5.90477651,12.240011 L10.9282641,12.240011 Z M31.8543085,13.1052179 C31.8543085,15.3358932 31.2316434,17.0991109 29.9849077,18.393504 C28.8688895,19.5457463 27.4815973,20.121184 25.8272479,20.121184 C24.0407754,20.121184 22.7560894,19.5020075 21.9760011,18.260921 L21.9760011,25.1429373 L18.9793376,25.1429373 L18.9793376,11.019427 C18.9793376,9.61842074 18.9413873,8.18187673 18.868298,6.70842816 L21.5037314,6.70842816 L21.6709936,8.78738481 L21.7272162,8.78738481 C22.7265726,7.22099144 24.2431767,6.43779475 26.2784341,6.43779475 C27.8695331,6.43779475 29.1977916,7.04877018 30.2603983,8.27208786 C31.3215995,9.49813922 31.8543085,11.1082713 31.8543085,13.1052179 Z M28.8014224,13.211831 C28.8014224,11.9352067 28.5062538,10.8827435 27.9131056,10.0530744 C27.2651404,9.19060125 26.3950959,8.75868127 25.3043779,8.75868127 C24.5650509,8.75868127 23.8931911,8.9992443 23.2930151,9.47353618 C22.6914335,9.95192857 22.2978754,10.5765724 22.1137464,11.3502012 C22.0315476,11.6395215 21.9848393,11.9372833 21.9745956,12.2372774 L21.9745956,14.4255809 C21.9745956,15.3782651 22.2753864,16.1833312 22.876968,16.8421458 C23.4785496,17.4982268 24.2600434,17.8276342 25.2214496,17.8276342 C26.3501179,17.8276342 27.2285957,17.4025484 27.856883,16.5592109 C28.4865759,15.7131398 28.8014224,14.5978021 28.8014224,13.211831 Z M47.367524,13.1052179 C47.367524,15.3358932 46.7448589,17.0991109 45.4981232,18.393504 C44.3806994,19.5457463 42.9948128,20.121184 41.3390578,20.121184 C39.5525853,20.121184 38.2678994,19.5020075 37.4878111,18.260921 L37.4878111,25.1429373 L34.4911475,25.1429373 L34.4911475,11.019427 C34.4911475,9.61842074 34.4531973,8.18187673 34.3801079,6.70842816 L37.0155414,6.70842816 L37.1828036,8.78738481 L37.2390261,8.78738481 C38.2369769,7.22099144 39.753581,6.43779475 41.790244,6.43779475 C43.3799375,6.43779475 44.7081959,7.04877018 45.7736138,8.27208786 C46.8334095,9.49813922 47.367524,11.1082713 47.367524,13.1052179 Z M44.3132323,13.211831 C44.3132323,11.9352067 44.0166582,10.8827435 43.42351,10.0530744 C42.7755447,9.19060125 41.9083114,8.75868127 40.8175934,8.75868127 C40.0782664,8.75868127 39.4064066,8.9992443 38.8034194,9.47353618 C38.2018378,9.95192857 37.8096853,10.5765724 37.6255564,11.3502012 C37.5341947,11.7110457 37.4849999,12.0049154 37.4849999,12.2372774 L37.4849999,14.4255809 C37.4849999,15.3782651 37.7871963,16.1833312 38.3859668,16.8421458 C38.9875484,17.49686 39.7690423,17.8276342 40.7332595,17.8276342 C41.8633334,17.8276342 42.7418112,17.4025484 43.368693,16.5592109 C43.9983859,15.7131398 44.3132323,14.5978021 44.3132323,13.211831 Z M64.71219,14.7221841 C64.71219,16.2708086 64.1555865,17.5296641 63.0494072,18.501484 C61.8321884,19.5621483 60.1328609,20.0938473 57.9542359,20.0938473 C55.9414675,20.0938473 54.3278794,19.7166007 53.1106606,18.9607407 L53.8036039,16.5318742 C55.1178067,17.289101 56.5613215,17.6663476 58.1327426,17.6663476 C59.2628164,17.6663476 60.1412943,17.4175835 60.768176,16.924156 C61.3964634,16.4293616 61.7141209,15.7678132 61.7141209,14.9422446 C61.7141209,14.2027867 61.4512804,13.5836102 60.9354382,13.079248 C60.4167849,12.5762525 59.5593906,12.107428 58.3548218,11.6768749 C55.0798565,10.4890949 53.4409682,8.75184709 53.4409682,6.4664983 C53.4409682,4.97391403 54.0200608,3.75196318 55.1754348,2.79654524 C56.3308089,1.84249412 57.8628742,1.36546857 59.7688197,1.36546857 C61.4709583,1.36546857 62.8891729,1.65387084 64.0150301,2.22930854 L63.263053,4.60486848 C62.2032574,4.04719963 61.007122,3.76836521 59.6690246,3.76836521 C58.6120401,3.76836521 57.782757,4.02122976 57.1896088,4.52422519 C56.6906334,4.97391403 56.4376318,5.52201503 56.4376318,6.17262868 C56.4376318,6.89021727 56.7257725,7.48615751 57.2992428,7.95361521 C57.7968127,8.38416837 58.7048073,8.85299291 60.0176046,9.35598834 C61.6283815,9.9874663 62.8118668,10.7228237 63.5694661,11.567528 C64.3326876,12.4122323 64.71219,13.4660624 64.71219,14.7221841 Z M74.6453144,8.89536481 L71.3422378,8.89536481 L71.3422378,15.263451 C71.3422378,16.8831509 71.9241415,17.6909506 73.0907601,17.6909506 C73.6262802,17.6909506 74.0704386,17.6472119 74.4218297,17.5556339 L74.504758,19.7685404 C73.9144209,19.9831336 73.1371437,20.0911136 72.174332,20.0911136 C70.9908467,20.0911136 70.0659853,19.7398369 69.3983421,19.0372835 C68.7335101,18.3347301 68.3989858,17.1578848 68.3989858,15.5012803 L68.3989858,8.88989747 L66.4311954,8.88989747 L66.4311954,6.70296082 L68.3989858,6.70296082 L68.3989858,4.30143102 L71.3422378,3.43759104 L71.3422378,6.70296082 L74.6453144,6.70296082 L74.6453144,8.89536481 Z M89.5189981,13.1585244 C89.5189981,15.1746067 88.9258499,16.8298443 87.7423645,18.1242375 C86.5040622,19.456902 84.8567406,20.121184 82.8032109,20.121184 C80.8213649,20.121184 79.2457271,19.4828718 78.0706752,18.2076144 C76.8956232,16.9296233 76.3080973,15.3194912 76.3080973,13.3772181 C76.3080973,11.3447339 76.9153011,9.67992833 78.1254922,8.3855352 C79.3384943,7.08977524 80.9717603,6.44189526 83.0252901,6.44189526 C85.0043249,6.44189526 86.5940183,7.08157423 87.7971816,8.35819849 C88.9469333,9.59655137 89.5189981,11.1957488 89.5189981,13.1585244 Z M86.4127005,13.2254994 C86.4127005,12.024051 86.1456433,10.9934572 85.6101232,10.130984 C84.9818358,9.08945543 84.0822746,8.56869115 82.9170616,8.56869115 C81.7167095,8.56869115 80.7960647,9.08945543 80.169183,10.130984 C79.6322573,10.9934572 79.3652001,12.0418199 79.3652001,13.2801728 C79.3652001,14.4829879 79.6322573,15.5163155 80.169183,16.376055 C80.8171482,17.4175835 81.7209262,17.9383478 82.8917614,17.9383478 C84.0372965,17.9383478 84.9354522,17.4066489 85.584823,16.3500851 C86.1358043,15.4671094 86.4127005,14.4296814 86.4127005,13.2254994 Z M99.2637768,9.27124454 C98.952102,9.21652609 98.635949,9.18953344 98.3192375,9.19060125 C97.2650641,9.19060125 96.4498367,9.57604884 95.8763664,10.3524113 C95.3787965,11.035829 95.128606,11.899669 95.128606,12.9425644 L95.128606,19.8245807 L92.1319425,19.8245807 L92.1319425,10.8390048 C92.1346149,9.46214129 92.1055593,8.08539247 92.0447975,6.709795 L94.6549308,6.709795 L94.7645648,9.2193048 L94.8474931,9.2193048 C95.1651507,8.35683166 95.6627206,7.66111244 96.3458249,7.14034815 C96.971095,6.68529819 97.7308178,6.43887528 98.5117998,6.43779475 C98.788696,6.43779475 99.0388865,6.45693045 99.2609657,6.49110133 L99.2637768,9.27124454 Z M112.665834,12.6459612 C112.673433,13.088952 112.636716,13.5316117 112.5562,13.967691 L103.56621,13.967691 C103.599943,15.263451 104.035668,16.2557735 104.870574,16.9391912 C105.628173,17.5487997 106.607851,17.8549709 107.811015,17.8549709 C109.142084,17.8549709 110.356492,17.6499456 111.448616,17.2357944 L111.918074,19.257344 C110.641822,19.7986108 109.135056,20.0678774 107.396373,20.0678774 C105.304893,20.0678774 103.663194,19.4692035 102.468464,18.2745893 C101.276545,17.0786084 100.67918,15.4712099 100.67918,13.4578614 C100.67918,11.4814174 101.234378,9.83438073 102.34618,8.52085191 C103.509987,7.11847878 105.082814,6.41729222 107.061849,6.41729222 C109.005744,6.41729222 110.47737,7.11847878 111.476727,8.52085191 C112.26806,9.63208909 112.665834,11.0098592 112.665834,12.6459612 Z M109.808322,11.8901012 C109.829405,11.0248944 109.632626,10.2799691 109.226418,9.64985795 C108.707765,8.83795772 107.909404,8.43337444 106.83977,8.43337444 C105.860091,8.43337444 105.06173,8.82838987 104.454527,9.62115441 C103.955551,10.2512655 103.658977,11.0084923 103.567615,11.8873675 L109.808322,11.8901012 Z" id="Shape"></path>
                </g>
                <g id="Group" transform="translate(60.439274, 8.201012)" fill="#FFFFFF" fill-rule="nonzero">
                    <path d="M3.10770313,10.238964 C2.27420338,10.238964 1.55314878,10.1993258 0.952972738,10.1323508 L0.952972738,1.33813186 C1.79238794,1.21203463 2.64064847,1.14988245 3.49001668,1.15224225 C6.92662191,1.15224225 8.50928754,2.79654524 8.50928754,5.47690946 C8.50928754,8.56869115 6.63988675,10.238964 3.10770313,10.238964 Z M3.61089523,2.27988145 C3.14705894,2.27988145 2.75209531,2.30721816 2.42459878,2.37282626 L2.42459878,9.05801822 C2.60169991,9.08535493 2.94184652,9.09765645 3.41973845,9.09765645 C5.6714528,9.09765645 6.95332763,7.85110256 6.95332763,5.51654769 C6.95332763,3.43485737 5.79373691,2.27988145 3.61089523,2.27988145 Z M13.4414134,10.3059389 C11.5045455,10.3059389 10.2493764,8.89946531 10.2493764,6.98999625 C10.2493764,4.99988391 11.5312512,3.58110876 13.5510474,3.58110876 C15.459804,3.58110876 16.7430844,4.92060745 16.7430844,6.88474993 C16.7430844,8.89946531 15.4204482,10.3059389 13.4414134,10.3059389 Z M13.497636,4.62810468 C12.4336237,4.62810468 11.7519249,5.59582414 11.7519249,6.94899119 C11.7519249,8.27618837 12.4476793,9.24390784 13.4835803,9.24390784 C14.5194814,9.24390784 15.2152358,8.20921343 15.2152358,6.92165448 C15.2152358,5.6094925 14.533537,4.62810468 13.497636,4.62810468 Z M27.7880104,3.71369179 L25.7148027,10.1596876 L24.3640552,10.1596876 L23.5052553,7.36040865 C23.2917203,6.67568623 23.1139237,5.98090248 22.9725464,5.27871833 L22.9444351,5.27871833 C22.8362066,5.98127173 22.6309942,6.68519196 22.4131317,7.36040865 L21.4995147,10.1596876 L20.1347116,10.1596876 L18.1837881,3.71369179 L19.697581,3.71369179 L20.4481525,6.77813677 C20.6252536,7.50802687 20.7742435,8.19691192 20.8979331,8.84752557 L20.9260444,8.84752557 C21.0342729,8.30489191 21.211374,7.62694155 21.4714035,6.79180512 L22.4131317,3.71505863 L23.6134838,3.71505863 L24.5144506,6.72619702 C24.7323131,7.45608713 24.9094142,8.17230888 25.0471596,8.8488924 L25.0865154,8.8488924 C25.1820938,8.18597723 25.3324892,7.482057 25.536296,6.72619702 L26.3416845,3.71505863 L27.7880104,3.71369179 Z M35.4202257,10.1596876 L33.947194,10.1596876 L33.947194,6.45829728 C33.947194,5.31835656 33.4974134,4.74701936 32.6105022,4.74701936 C31.7376466,4.74701936 31.1374706,5.47690946 31.1374706,6.32571425 L31.1374706,10.1596876 L29.664439,10.1596876 L29.664439,5.55618592 C29.664439,4.98621555 29.6503833,4.37524013 29.609622,3.71232496 L30.9055524,3.71232496 L30.9744251,4.70738113 L31.0151865,4.70738113 C31.4115557,4.01849609 32.2155386,3.58110876 33.1165054,3.58110876 C34.5080143,3.58110876 35.4216312,4.61580316 35.4216312,6.29974438 L35.4202257,10.1596876 Z M39.4823071,10.1596876 L38.0078699,10.1596876 L38.0078699,0.755859978 L39.4823071,0.755859978 L39.4823071,10.1596876 Z M44.8529691,10.3059389 C42.9175068,10.3059389 41.6609321,8.89946531 41.6609321,6.98999625 C41.6609321,4.99988391 42.9428069,3.58110876 44.9611976,3.58110876 C46.8713597,3.58110876 48.1532346,4.92060745 48.1532346,6.88474993 C48.1546401,8.89946531 46.8305983,10.3059389 44.8529691,10.3059389 Z M44.9077861,4.62810468 C43.8437738,4.62810468 43.162075,5.59582414 43.162075,6.94899119 C43.162075,8.27618837 43.859235,9.24390784 44.8923249,9.24390784 C45.9296315,9.24390784 46.6239804,8.20921343 46.6239804,6.92165448 C46.6253859,5.6094925 45.9450927,4.62810468 44.9077861,4.62810468 Z M53.9610271,10.1596876 L53.8542042,9.41749593 L53.8148484,9.41749593 C53.3650678,10.014803 52.7086691,10.3059389 51.8765749,10.3059389 C50.6888729,10.3059389 49.8455342,9.49677239 49.8455342,8.4087714 C49.8455342,6.81777499 51.2637488,5.99494008 53.71927,5.99494008 L53.71927,5.8760254 C53.71927,5.02722061 53.2568393,4.6021348 52.3432224,4.6021348 C51.6896349,4.6021348 51.1161645,4.76205455 50.6115669,5.0805272 L50.3121816,4.1387776 C50.9250078,3.76699837 51.6896349,3.58110876 52.5877906,3.58110876 C54.3194461,3.58110876 55.1937072,4.46955177 55.1937072,6.24780463 L55.1937072,8.62199773 C55.1937072,9.27261138 55.223224,9.77697364 55.2892856,10.1610544 L53.9610271,10.1596876 Z M53.7586258,6.94899119 C52.1225487,6.94899119 51.3016991,7.33443878 51.3016991,8.24885166 C51.3016991,8.92543519 51.724774,9.25620935 52.3122999,9.25620935 C53.0614658,9.25620935 53.7586258,8.69990734 53.7586258,7.94404737 L53.7586258,6.94899119 Z M62.346625,10.1596876 L62.2777523,9.12499316 L62.2369909,9.12499316 C61.813916,9.90682301 61.1027004,10.3059389 60.1089663,10.3059389 C58.5108394,10.3059389 57.3273541,8.93910354 57.3273541,7.01596613 C57.3273541,4.99988391 58.5544119,3.57974192 60.2298448,3.57974192 C61.116756,3.57974192 61.7450434,3.87087786 62.0992456,4.45588342 L62.1287625,4.45588342 L62.1287625,0.755859978 L63.6031996,0.755859978 L63.6031996,8.42243976 C63.6031996,9.0457167 63.6186609,9.62935542 63.6580167,10.1596876 L62.346625,10.1596876 Z M62.1287625,6.36671931 C62.1287625,5.46460794 61.5145308,4.69507961 60.5770193,4.69507961 C59.4848956,4.69507961 58.8172525,5.6368292 58.8172525,6.96265955 C58.8172525,8.26252002 59.5101958,9.15232986 60.5475024,9.15232986 C61.4737694,9.15232986 62.1287625,8.36913318 62.1287625,7.44105194 L62.1287625,6.36671931 Z M72.9516092,10.3059389 C71.0161469,10.3059389 69.7609778,8.89946531 69.7609778,6.98999625 C69.7609778,4.99988391 71.0428526,3.58110876 73.0612432,3.58110876 C74.9714054,3.58110876 76.2532802,4.92060745 76.2532802,6.88474993 C76.2546858,8.89946531 74.9320496,10.3059389 72.9516092,10.3059389 Z M73.0064262,4.62810468 C71.9438195,4.62810468 71.2621207,5.59582414 71.2621207,6.94899119 C71.2621207,8.27618837 71.9578751,9.24390784 72.9923706,9.24390784 C74.0296772,9.24390784 74.7240261,8.20921343 74.7240261,6.92165448 C74.7268372,5.6094925 74.0451384,4.62810468 73.0064262,4.62810468 Z M84.1750418,10.1596876 L82.7006046,10.1596876 L82.7006046,6.45829728 C82.7006046,5.31835656 82.250824,4.74701936 81.3639128,4.74701936 C80.4910572,4.74701936 79.8922868,5.47690946 79.8922868,6.32571425 L79.8922868,10.1596876 L78.4178496,10.1596876 L78.4178496,5.55618592 C78.4178496,4.98621555 78.4037939,4.37524013 78.3630326,3.71232496 L79.658963,3.71232496 L79.7278357,4.70738113 L79.7685971,4.70738113 C80.1635607,4.01849609 80.9689492,3.57974192 81.8685105,3.57974192 C83.2600193,3.57974192 84.1750418,4.61443632 84.1750418,6.29837754 L84.1750418,10.1596876 Z M94.0856772,4.78802442 L92.4650613,4.78802442 L92.4650613,7.91807749 C92.4650613,8.71494253 92.7489853,9.11269164 93.3224557,9.11269164 C93.5824851,9.11269164 93.8003476,9.08535493 93.9760431,9.0457167 L94.0168045,10.1337177 C93.7314749,10.2403308 93.3491614,10.2936374 92.8740806,10.2936374 C91.7130843,10.2936374 91.0187354,9.67036048 91.0187354,8.03835901 L91.0187354,4.78802442 L90.051707,4.78802442 L90.051707,3.71369179 L91.0187354,3.71369179 L91.0187354,2.532746 L92.4650613,2.10766019 L92.4650613,3.71232496 L94.0856772,3.71232496 L94.0856772,4.78802442 Z M101.883749,10.1596876 L100.412123,10.1596876 L100.412123,6.48563399 C100.412123,5.33202491 99.963748,4.74838619 99.0754312,4.74838619 C98.3122097,4.74838619 97.600994,5.25274846 97.600994,6.2737745 L97.600994,10.1596876 L96.129368,10.1596876 L96.129368,0.755859978 L97.600994,0.755859978 L97.600994,4.62810468 L97.6305109,4.62810468 C98.0943472,3.92555128 98.766207,3.57974192 99.6236014,3.57974192 C101.026355,3.57974192 101.883749,4.6404062 101.883749,6.32571425 L101.883749,10.1596876 Z M109.872978,7.2811322 L105.452477,7.2811322 C105.480589,8.50171621 106.311277,9.19060125 107.541146,9.19060125 C108.194734,9.19060125 108.796315,9.08398809 109.327619,8.88579696 L109.556726,9.88085313 C108.929844,10.1460192 108.191923,10.2786022 107.333123,10.2786022 C105.259915,10.2786022 104.032857,9.00471164 104.032857,7.02963448 C104.032857,5.05319049 105.289432,3.5674404 107.167266,3.5674404 C108.860971,3.5674404 109.923578,4.78802442 109.923578,6.63188538 C109.933103,6.84948425 109.916118,7.06741483 109.872978,7.2811322 Z M108.52223,6.26010615 C108.52223,5.26504998 108.006388,4.56249658 107.06466,4.56249658 C106.21851,4.56249658 105.549461,5.27871833 105.453883,6.26010615 L108.52223,6.26010615 Z" id="Shape"></path>
                </g>
            </g>
        </g>
    </g>
</svg>