<?xml version="1.0" encoding="UTF-8"?>
<svg width="190px" height="55px" viewBox="0 0 190 55" version="1.1" xmlns="http://www.w3.org/2000/svg" xmlns:xlink="http://www.w3.org/1999/xlink">
    <!-- Generator: Sketch 52.6 (67491) - http://www.bohemiancoding.com/sketch -->
    <title>Google_Play_Store_badge_EN</title>
    <desc>Created with Sketch.</desc>
    <defs>
        <linearGradient x1="91.4072364%" y1="4.94958549%" x2="-38.3594609%" y2="71.9258683%" id="linearGradient-1">
            <stop stop-color="#00A0FF" offset="0%"></stop>
            <stop stop-color="#00A1FF" offset="0.6569999%"></stop>
            <stop stop-color="#00BEFF" offset="26.01%"></stop>
            <stop stop-color="#00D2FF" offset="51.22%"></stop>
            <stop stop-color="#00DFFF" offset="76.04%"></stop>
            <stop stop-color="#00E3FF" offset="100%"></stop>
        </linearGradient>
        <linearGradient x1="107.630451%" y1="50.0004315%" x2="-130.551706%" y2="50.0004315%" id="linearGradient-2">
            <stop stop-color="#FFE000" offset="0%"></stop>
            <stop stop-color="#FFBD00" offset="40.87%"></stop>
            <stop stop-color="#FFA500" offset="77.54%"></stop>
            <stop stop-color="#FF9C00" offset="100%"></stop>
        </linearGradient>
        <linearGradient x1="86.243474%" y1="17.8595968%" x2="-50.1292379%" y2="194.780903%" id="linearGradient-3">
            <stop stop-color="#FF3A44" offset="0%"></stop>
            <stop stop-color="#C31162" offset="100%"></stop>
        </linearGradient>
        <linearGradient x1="-18.8105628%" y1="-54.180473%" x2="42.0848536%" y2="24.8697445%" id="linearGradient-4">
            <stop stop-color="#32A071" offset="0%"></stop>
            <stop stop-color="#2DA771" offset="6.85%"></stop>
            <stop stop-color="#15CF74" offset="47.62%"></stop>
            <stop stop-color="#06E775" offset="80.09%"></stop>
            <stop stop-color="#00F076" offset="100%"></stop>
        </linearGradient>
    </defs>
    <g id="Page-1" stroke="none" stroke-width="1" fill="none" fill-rule="evenodd">
        <g id="Artboard" transform="translate(-303.000000, -117.000000)">
            <g id="Google_Play_Store_badge_EN" transform="translate(303.000000, 117.000000)">
                <path d="M182.953642,55 L7.03936718,55 C3.15967623,55 0,51.9002494 0,48.125 L0,6.875 C0,3.08603491 3.15967623,0 7.03936718,0 L182.953642,0 C186.829838,0 189.99301,3.08603491 189.99301,6.875 L189.99301,48.125 C189.99301,51.9002494 186.829838,55 182.953642,55 Z" id="Path" fill="#000000"></path>
                <path d="M182.953642,1.10068579 C186.207689,1.10068579 188.871045,3.69638404 188.871045,6.875 L188.871045,48.125 C188.871045,51.303616 186.225166,53.8993142 182.953642,53.8993142 L7.03936718,53.8993142 C3.78532009,53.8993142 1.12196468,51.303616 1.12196468,48.125 L1.12196468,6.875 C1.12196468,3.69638404 3.767844,1.10068579 7.03936718,1.10068579 C7.03936718,1.10068579 182.953642,1.10068579 182.953642,1.10068579 Z M182.953642,0 L7.03936718,0 C3.15967623,0 0,3.09975062 0,6.875 L0,48.125 C0,51.9139651 3.15967623,55 7.03936718,55 L182.953642,55 C186.829838,55 189.99301,51.9139651 189.99301,48.125 L189.99301,6.875 C189.99301,3.09975062 186.829838,0 182.953642,0 Z" id="Shape" fill="#A6A6A6"></path>
                <path d="M100.089036,18.1938903 C98.8202723,18.1938903 97.7507358,17.7584165 96.9048933,16.9011845 C96.0660412,16.0679551 95.5976821,14.9192643 95.6186534,13.7465711 C95.6186534,12.4950125 96.0520603,11.4354738 96.9048933,10.5953865 C97.7472406,9.73815461 98.816777,9.3026808 100.085541,9.3026808 C101.340324,9.3026808 102.40986,9.73815461 103.269684,10.5953865 C104.122517,11.4629052 104.555923,12.5224439 104.555923,13.7465711 C104.541943,15.0015586 104.108536,16.0610973 103.269684,16.8977556 C102.427336,17.7618454 101.3578,18.1938903 100.089036,18.1938903 Z M62.3371965,18.1938903 C61.0963944,18.1938903 60.0198675,17.7652743 59.1390728,16.9183292 C58.2652686,16.074813 57.821376,15.0084165 57.821376,13.75 C57.821376,12.4915835 58.2652686,11.425187 59.1390728,10.5816708 C60.0023915,9.73472569 61.0789183,9.30610973 62.3371965,9.30610973 C62.9523547,9.30610973 63.5500368,9.42612219 64.1232524,9.66957606 C64.6859823,9.90617207 65.1438558,10.2284913 65.4828918,10.622818 L65.566777,10.7222569 L64.6195732,11.6343516 L64.5217071,11.521197 C63.9869389,10.8971322 63.2704194,10.5919576 62.3232156,10.5919576 C61.4773731,10.5919576 60.7398823,10.8868454 60.1317145,11.4697631 C59.5200515,12.0561097 59.2089772,12.8241895 59.2089772,13.7534289 C59.2089772,14.6826683 59.5200515,15.4507481 60.1317145,16.0370948 C60.7398823,16.6200125 61.4773731,16.9149002 62.3232156,16.9149002 C63.2249816,16.9149002 63.9834437,16.6200125 64.5741354,16.0370948 C64.9236571,15.694202 65.1403606,15.2141521 65.2172553,14.6072319 L62.1799117,14.6072319 L62.1799117,13.324813 L66.5209713,13.324813 L66.5384474,13.4413965 C66.5699043,13.657419 66.6013613,13.8802993 66.6013613,14.0860349 C66.6013613,15.269015 66.2378587,16.2256858 65.517844,16.9320449 C64.6999632,17.7687032 63.6304268,18.1938903 62.3371965,18.1938903 Z M112.532009,18.0121571 L111.193341,18.0121571 L107.093451,11.5760599 L107.128403,12.7350374 L107.128403,18.0087282 L105.789735,18.0087282 L105.789735,9.48784289 L107.317145,9.48784289 L107.359088,9.55299252 L111.214312,15.6153367 L111.17936,14.459788 L111.17936,9.48784289 L112.532009,9.48784289 L112.532009,18.0121571 Z M90.0298013,18.0121571 L88.6736571,18.0121571 L88.6736571,10.7702618 L86.321376,10.7702618 L86.321376,9.48784289 L92.3785872,9.48784289 L92.3785872,10.7702618 L90.0263061,10.7702618 L90.0263061,18.0121571 L90.0298013,18.0121571 Z M85.2168874,18.0121571 L83.8642384,18.0121571 L83.8642384,9.48784289 L85.2168874,9.48784289 L85.2168874,18.0121571 Z M77.6147903,18.0121571 L76.2621413,18.0121571 L76.2621413,10.7702618 L73.9098602,10.7702618 L73.9098602,9.48784289 L79.9670714,9.48784289 L79.9670714,10.7702618 L77.6147903,10.7702618 L77.6147903,18.0121571 Z M73.053532,17.9984414 L67.8666299,17.9984414 L67.8666299,9.48784289 L73.053532,9.48784289 L73.053532,10.7702618 L69.2227741,10.7702618 L69.2227741,13.1087905 L72.6795438,13.1087905 L72.6795438,14.3774938 L69.2227741,14.3774938 L69.2227741,16.7160224 L73.053532,16.7160224 L73.053532,17.9984414 Z M97.897535,16.0199501 C98.5022075,16.6131546 99.2362031,16.9114713 100.089036,16.9114713 C100.966336,16.9114713 101.682855,16.6200125 102.280537,16.0199501 C102.874724,15.4370324 103.175313,14.6723815 103.175313,13.75 C103.175313,12.8276185 102.874724,12.0595387 102.284032,11.4800499 C101.67936,10.8868454 100.941869,10.5885287 100.092531,10.5885287 C99.2152318,10.5885287 98.4987123,10.8799875 97.9045254,11.4800499 C97.3103385,12.0629676 97.0097498,12.8276185 97.0097498,13.75 C97.0097498,14.6723815 97.3068433,15.4404613 97.897535,16.0199501 Z" id="Shape" fill="#FFFFFF" fill-rule="nonzero"></path>
                <path d="M95.4928256,29.9139651 C92.1898455,29.9139651 89.5125092,32.3725062 89.5125092,35.7637157 C89.5125092,39.1240648 92.2073216,41.6134663 95.4928256,41.6134663 C98.7958057,41.6134663 101.473142,39.1377805 101.473142,35.7637157 C101.473142,32.3725062 98.7958057,29.9139651 95.4928256,29.9139651 Z M95.4928256,39.2955112 C93.6857984,39.2955112 92.1304268,37.8279302 92.1304268,35.75 C92.1304268,33.6412095 93.6892936,32.2044888 95.4928256,32.2044888 C97.2998528,32.2044888 98.8552244,33.6412095 98.8552244,35.75 C98.8587196,37.8416459 97.2998528,39.2955112 95.4928256,39.2955112 Z M82.4451803,29.9139651 C79.1422001,29.9139651 76.4648639,32.3725062 76.4648639,35.7637157 C76.4648639,39.1240648 79.1596762,41.6134663 82.4451803,41.6134663 C85.7481604,41.6134663 88.4254967,39.1377805 88.4254967,35.7637157 C88.4254967,32.3725062 85.7446652,29.9139651 82.4451803,29.9139651 Z M82.4451803,39.2955112 C80.6381531,39.2955112 79.0827815,37.8279302 79.0827815,35.75 C79.0827815,33.6412095 80.6416483,32.2044888 82.4451803,32.2044888 C84.2522075,32.2044888 85.8075791,33.6412095 85.8075791,35.75 C85.8075791,37.8416459 84.2522075,39.2955112 82.4451803,39.2955112 Z M66.919426,31.7004364 L66.919426,34.1761222 L72.9766372,34.1761222 C72.7913907,35.5648379 72.3230316,36.5900873 71.6065121,37.2930175 C70.718727,38.1639651 69.3486019,39.1103491 66.9334069,39.1103491 C63.2110007,39.1103491 60.2994849,36.1614713 60.2994849,32.5096633 C60.2994849,28.8578554 63.2110007,25.9089776 66.9334069,25.9089776 C68.9431567,25.9089776 70.4076527,26.6873441 71.4946652,27.6817332 L73.2842163,25.9261222 C71.7742826,24.5065461 69.7645327,23.4195761 66.9473878,23.4195761 C61.8408756,23.4195761 57.5557395,27.5 57.5557395,32.4959476 C57.5557395,37.505611 61.8373804,41.5723192 66.9473878,41.5723192 C69.7051141,41.5723192 71.7742826,40.6876559 73.4100442,39.021197 C75.0772627,37.3855985 75.6050405,35.0779302 75.6050405,33.2160224 C75.6050405,32.6365337 75.5596026,32.1153367 75.4652318,31.673005 L66.9159308,31.673005 C66.919426,31.6695761 66.919426,31.7004364 66.919426,31.7004364 Z M130.424025,33.6274938 C129.924209,32.3142145 128.414275,29.9002494 125.317513,29.9002494 C122.248712,29.9002494 119.697204,32.2696384 119.697204,35.75 C119.697204,39.0349127 122.220751,41.5997506 125.614606,41.5997506 C128.340876,41.5997506 129.927704,39.9641521 130.58131,39.0040524 L128.557579,37.6736284 C127.886497,38.6508728 126.953274,39.2920823 125.628587,39.2920823 C124.289919,39.2920823 123.353201,38.6954489 122.731052,37.5193267 L130.703642,34.27899 C130.703642,34.282419 130.424025,33.6274938 130.424025,33.6274938 Z M122.29415,35.5819825 C122.231236,33.3223192 124.083701,32.1736284 125.408389,32.1736284 C126.453458,32.1736284 127.323767,32.6776808 127.620861,33.4114713 L122.29415,35.5819825 Z M115.817513,41.25 L118.43543,41.25 L118.43543,24.0642145 L115.817513,24.0642145 L115.817513,41.25 Z M111.518396,31.2135287 L111.424025,31.2135287 C110.833333,30.5243142 109.711369,29.9002494 108.27833,29.9002494 C105.3039,29.9002494 102.56365,32.4685162 102.56365,35.7671446 C102.56365,39.0520574 105.289919,41.5894638 108.27833,41.5894638 C109.693893,41.5894638 110.833333,40.9619701 111.424025,40.2590399 L111.518396,40.2590399 L111.518396,41.0991272 C111.518396,43.3313591 110.30206,44.5349127 108.341244,44.5349127 C106.736939,44.5349127 105.740802,43.4033666 105.335357,42.4569825 L103.059971,43.3896509 C103.713576,44.9326683 105.457689,46.842581 108.337748,46.842581 C111.406549,46.842581 114.00699,45.0698254 114.00699,40.7459476 L114.00699,30.25 L111.532377,30.25 L111.532377,31.2135287 C111.535872,31.2135287 111.518396,31.2135287 111.518396,31.2135287 Z M108.512509,39.2955112 C106.705482,39.2955112 105.195548,37.8142145 105.195548,35.7671446 C105.195548,33.7029302 106.705482,32.2079177 108.512509,32.2079177 C110.30206,32.2079177 111.689662,33.7200748 111.689662,35.7671446 C111.707138,37.8142145 110.305556,39.2955112 108.512509,39.2955112 Z M142.681751,24.0642145 L136.421818,24.0642145 L136.421818,41.25 L139.039735,41.25 L139.039735,34.7418953 L142.685247,34.7418953 C145.582781,34.7418953 148.431383,32.6811097 148.431383,29.4099127 C148.431383,26.1387157 145.593267,24.0642145 142.681751,24.0642145 Z M142.758646,32.3416459 L139.03624,32.3416459 L139.03624,26.4438903 L142.758646,26.4438903 C144.719463,26.4438903 145.827447,28.0314838 145.827447,29.3927681 C145.827447,30.7403367 144.705482,32.3416459 142.758646,32.3416459 Z M158.924025,29.8831047 C157.022627,29.8831047 155.06181,30.7094763 154.25092,32.5096633 L156.571744,33.4560474 C157.07156,32.5096633 157.987307,32.1873441 158.955482,32.1873441 C160.311626,32.1873441 161.681751,32.9828554 161.713208,34.4024314 L161.713208,34.5841646 C161.244849,34.3235661 160.217255,33.9258105 158.986939,33.9258105 C156.480868,33.9258105 153.939845,35.2699501 153.939845,37.790212 C153.939845,40.0978803 155.995033,41.5791771 158.2844,41.5791771 C160.042494,41.5791771 161.01067,40.8008105 161.615342,39.8990025 L161.709713,39.8990025 L161.709713,41.2294264 L164.23326,41.2294264 L164.23326,34.6458853 C164.23326,31.5804239 161.912436,29.8831047 158.924025,29.8831047 Z M158.595475,39.2955112 C157.739146,39.2955112 156.540287,38.8840399 156.540287,37.8279302 C156.540287,36.4975062 158.03624,35.9934539 159.311994,35.9934539 C160.465416,35.9934539 161.01067,36.2369077 161.695732,36.5729426 C161.50699,38.1159601 160.178808,39.2817955 158.595475,39.2955112 Z M173.439662,30.25 L170.433775,37.7044888 L170.339404,37.7044888 L167.225166,30.25 L164.408021,30.25 L169.081126,40.6705112 L166.41777,46.4619701 L169.14404,46.4619701 L176.333701,30.25 C176.333701,30.25 173.439662,30.25 173.439662,30.25 Z M149.874908,41.25 L152.492826,41.25 L152.492826,24.0642145 L149.874908,24.0642145 L149.874908,41.25 Z" id="Shape" fill="#FFFFFF"></path>
                <path d="M14.6239882,10.3587905 C14.218543,10.7874065 13.9843635,11.4423317 13.9843635,12.2995636 L13.9843635,42.7038653 C13.9843635,43.5610973 14.218543,44.2160224 14.6379691,44.6274938 L14.7463208,44.7200748 L32.1105592,27.6851621 L32.1105592,27.3045511 L14.73234,10.2662095 C14.73234,10.2662095 14.6239882,10.3587905 14.6239882,10.3587905 Z" id="Path" fill="url(#linearGradient-1)"></path>
                <path d="M37.8881531,33.380611 L32.0965784,27.6988778 L32.0965784,27.3011222 L37.8881531,21.619389 L38.0139809,21.6948254 L44.8646063,25.5146509 C46.8254231,26.598192 46.8254231,28.3880923 44.8646063,29.4853491 L38.0139809,33.3051746 C38.0139809,33.3051746 37.8881531,33.380611 37.8881531,33.380611 Z" id="Path" fill="url(#linearGradient-2)"></path>
                <path d="M38.0139809,33.3051746 L32.0965784,27.5 L14.6239882,44.6412095 C15.263613,45.3132793 16.3366446,45.3887157 17.535504,44.7337905 L38.0139809,33.3051746" id="Path" fill="url(#linearGradient-3)"></path>
                <path d="M38.0139809,21.6948254 L17.535504,10.2833541 C16.3366446,9.61128429 15.2601177,9.70386534 14.6239882,10.3759352 L32.0965784,27.5 L38.0139809,21.6948254 Z" id="Path" fill="url(#linearGradient-4)"></path>
                <path d="M37.8881531,33.1817332 L17.5494849,44.5177681 C16.4135394,45.1589776 15.3999264,45.1144015 14.7463208,44.5314838 L14.6379691,44.6377805 L14.7463208,44.7303616 C15.3999264,45.3098504 16.4135394,45.3578554 17.5494849,44.7166459 L38.0279617,33.3051746 C38.0279617,33.3051746 37.8881531,33.1817332 37.8881531,33.1817332 Z" id="Path" fill="#000000" opacity="0.2"></path>
                <path d="M44.8646063,29.2864713 L37.870677,33.1817332 L37.9965048,33.3051746 L44.8471302,29.4853491 C45.8292862,28.9367207 46.3116262,28.2166459 46.3116262,27.5 C46.2522075,28.1583541 45.7523915,28.782419 44.8646063,29.2864713 Z" id="Path" fill="#000000" opacity="0.12"></path>
                <path d="M17.535504,10.4822319 L44.8646063,25.7135287 C45.7523915,26.2038653 46.2522075,26.8450748 46.3291023,27.5 C46.3291023,26.7833541 45.8467623,26.0632793 44.8646063,25.5146509 L17.535504,10.2833541 C15.5746873,9.18266833 13.9843635,10.1016209 13.9843635,12.2995636 L13.9843635,12.4984414 C13.9843635,10.2970698 15.5746873,9.39526185 17.535504,10.4822319 Z" id="Path" fill="#FFFFFF" opacity="0.25"></path>
            </g>
        </g>
    </g>
</svg>