<?xml version="1.0"?>
<svg xmlns="http://www.w3.org/2000/svg" xmlns:xlink="http://www.w3.org/1999/xlink" version="1.1" id="Capa_1" x="0px" y="0px" viewBox="0 0 512 512" style="enable-background:new 0 0 512 512;" xml:space="preserve" width="512px" height="512px"><g><g transform="translate(1 1)">
	<g>
		<path d="M511,84.333C511,37.202,472.798-1,425.667-1c-31.583,0-59.135,17.167-73.89,42.667H84.333C37.202,41.667-1,79.869-1,127    v298.667C-1,472.798,37.202,511,84.333,511H383c47.131,0,85.333-38.202,85.333-85.333V158.224    C493.833,143.468,511,115.916,511,84.333z M425.667,425.667c0,23.567-19.099,42.667-42.667,42.667H84.333    c-23.567,0-42.667-19.099-42.667-42.667V127c0-23.567,19.099-42.667,42.667-42.667h256c0,47.131,38.202,85.333,85.333,85.333    V425.667z M442.482,123.554c-0.883,0.194-1.768,0.446-2.649,0.76c-4.394,1.567-8.491,2.445-12.453,2.642    c-0.569,0.023-1.139,0.043-1.713,0.043C402.099,127,383,107.901,383,84.333c0-0.575,0.021-1.144,0.043-1.713    c0.197-3.962,1.075-8.059,2.642-12.453c0.314-0.882,0.566-1.766,0.761-2.649c6.526-15.203,21.626-25.851,39.221-25.851    c23.567,0,42.667,19.099,42.667,42.667C468.333,101.928,457.685,117.029,442.482,123.554z" data-original="#000000" class="active-path" data-old_color="#000000" fill="#F74B54"/>
	</g>
</g></g> </svg>
